<?xml version="1.0" encoding="UTF-8"?>
<svg id="Calque_2" data-name="Calque 2" xmlns="http://www.w3.org/2000/svg" viewBox="0 0 401.6 577.24">
  <defs>
    <style>
      .cls-1 {
        stroke: #ae9482;
      }

      .cls-1, .cls-2, .cls-3, .cls-4, .cls-5, .cls-6, .cls-7, .cls-8, .cls-9, .cls-10, .cls-11 {
        stroke-miterlimit: 10;
      }

      .cls-1, .cls-2, .cls-3, .cls-4, .cls-5, .cls-6, .cls-7, .cls-8, .cls-10 {
        fill: none;
      }

      .cls-12 {
        fill: #f7f5ea;
      }

      .cls-13 {
        fill: #fff;
      }

      .cls-14 {
        fill: #2fac66;
      }

      .cls-2, .cls-3 {
        stroke: #c99407;
      }

      .cls-2, .cls-8 {
        stroke-width: .75px;
      }

      .cls-15 {
        fill: #36a9e1;
      }

      .cls-3 {
        stroke-width: .5px;
      }

      .cls-16 {
        fill: #cf978a;
      }

      .cls-17 {
        fill: #7f563a;
      }

      .cls-18 {
        fill: #b2b2b2;
      }

      .cls-4, .cls-9 {
        stroke: #1d1d1b;
      }

      .cls-19 {
        fill: #979696;
      }

      .cls-20 {
        fill: #a8a8a7;
      }

      .cls-21 {
        fill: #bfa38f;
      }

      .cls-22 {
        fill: #9d9d9c;
      }

      .cls-23 {
        fill: #d4d4d4;
      }

      .cls-5 {
        stroke: #7b695c;
      }

      .cls-24 {
        fill: #dadada;
      }

      .cls-25 {
        fill: #ea545e;
      }

      .cls-6, .cls-8 {
        stroke: #af8968;
      }

      .cls-26 {
        fill: #c99407;
      }

      .cls-7 {
        stroke: #1c1c1c;
      }

      .cls-27 {
        fill: #e1ded3;
      }

      .cls-28, .cls-11 {
        fill: #f0ede2;
      }

      .cls-29 {
        fill: #f9b233;
      }

      .cls-30 {
        fill: #ebebeb;
      }

      .cls-31 {
        fill: #e71d73;
      }

      .cls-32 {
        fill: #c5a894;
      }

      .cls-33 {
        fill: #cbbba0;
      }

      .cls-34 {
        fill: #cfb09b;
      }

      .cls-9, .cls-35 {
        fill: #1d1d1b;
      }

      .cls-36 {
        fill: #ae9482;
      }

      .cls-37 {
        fill: #af8968;
      }

      .cls-38 {
        fill: #c4c4c4;
      }

      .cls-10 {
        stroke: #54483f;
      }

      .cls-11 {
        stroke: #f0ede2;
      }

      .cls-39 {
        fill: #ededed;
      }

      .cls-40 {
        fill: #e5e3d9;
      }
    </style>
  </defs>
  <g id="Calque_1-2" data-name="Calque 1">
    <g id="cheveux">
      <path id="cheveux-2" data-name="cheveux" class="cls-9" d="m306.25,503.9c7.4-32.4,6.35-134.89,7-169.8.64-34.5-3.46-63.56-4.94-98.44-1.48-34.88-9.34-74.18-29.99-102.33-9.92-13.52-22.72-25.22-38.03-32.06-15.31-6.84-33.26-8.48-48.98-2.65-21.06-7.18-45.19-1.15-62.89,12.33-17.7,13.48-30.06,32.74-40.42,52.43-42.23,80.26-27.97,247.65-44.53,333.12,30.12,42.06,77.3,69.38,129.03,70.46,51.72,1.09,122.24-12.61,133.75-63.05Z"/>
      <line class="cls-7" x1="192.58" y1="104.53" x2="192.86" y2="142.59"/>
    </g>
    <g id="body">
      <path id="body-2" data-name="body" class="cls-34" d="m335.93,551.93v.04c-16.66,6.31-33.79,11.45-51.24,15.38-2.91.65-5.82,1.28-8.76,1.87-2.91.59-5.84,1.16-8.8,1.69-33.72,6.03-68.37,7.74-102.62,5.11-2.95-.22-5.93-.49-8.88-.77-5.93-.59-11.81-1.3-17.7-2.14-8.82-1.26-17.58-2.83-26.27-4.68-15.86-3.36-31.48-7.72-46.72-13.03-2.87-1-5.72-2.04-8.55-3.1h.1l.61-.02v-.04c.39-7.01.79-14.05,1.28-21.1v-.02c.35-5.07.73-10.14,1.2-15.21.26-2.93.55-5.87.86-8.8,2.73-24.93,7.51-49.53,17.7-72.62,5.87-13.28,13.77-25.99,23.58-37.21.02-.06.06-.1.14-.16.1-.14.22-.31.41-.45,6.86-7.8,14.68-14.87,23.38-20.87,4.07-2.81,8.35-5.38,12.77-7.66.33-.18.67-.35,1.02-.53.06-.02.14-.06.22-.1,6.6-3.28,13.54-5.93,20.77-7.82.49-.12.98-.24,1.43-.35,7.45-1.85,8.82-1.69,8.29-10.41-.45-7.13-2.18-14.26-4.95-20.91,20.85,1.85,42.03,1.24,62.38-3.32l.47-.75c-2.99,6.9-4.85,14.34-5.29,21.77-.59,9.25,1,8.49,9.69,10.75.31.08.61.16.92.24,8.68,2.34,16.92,5.8,24.64,10.12,3.18,1.77,6.25,3.69,9.23,5.74,8.06,5.58,15.38,12.06,21.87,19.18,1.75,1.91,3.44,3.87,5.05,5.87,7.13,8.7,13.14,18.17,17.98,28.06.92,1.85,1.77,3.71,2.61,5.58,3.95,8.96,7.09,18.31,9.61,27.9,4.01,15.15,6.48,30.91,8.19,46.72,1.63,15.5,2.53,31.04,3.38,46.05Z"/>
      <path id="ombre_cou" data-name="ombre cou" class="cls-32" d="m167.58,336.66c4.73,15.82,1.75,21.87,1.75,21.87,17.94,7.09,38.79,6.49,56.29-1.62,0,0-5.85-.3-1-22.24,4.85-21.94-57.04,1.98-57.04,1.98Z"/>
    </g>
    <path id="chemise" class="cls-12" d="m335.93,551.93c-16.66,6.31-33.79,11.47-51.24,15.42-2.91.65-5.82,1.28-8.76,1.87-2.91.59-5.84,1.16-8.8,1.69-33.72,6.03-68.37,7.74-102.62,5.11-2.95-.22-5.93-.49-8.88-.77-5.93-.59-11.81-1.3-17.7-2.14-8.82-1.28-17.58-2.83-26.27-4.68-15.86-3.38-31.48-7.74-46.72-13.07-2.83-.98-5.64-2-8.45-3.05-.04-.02-.06-.02-.1-.04l.71-.02c.39-7.01.79-14.05,1.28-21.1v-.02c.35-5.07.73-10.14,1.2-15.21.26-2.93.55-5.87.86-8.8,2.71-25.01,7.49-49.67,17.7-72.83,5.84-13.28,13.77-26.01,23.58-37.23-.02-.02,0-.02.04-.04.1-.16.26-.35.45-.51,1.59-1.83,3.26-3.65,4.99-5.4,1.12-1.16,2.26-2.28,3.44-3.38,1.16-1.1,2.34-2.18,3.56-3.26,1.2-1.06,2.44-2.1,3.69-3.12,2.5-2.04,5.09-3.99,7.76-5.82.59-.41,1.2-.83,1.81-1.22.71-.51,1.45-.98,2.18-1.43.75-.47,1.49-.94,2.26-1.38,1.06-.63,2.12-1.24,3.2-1.83,1.08-.61,2.18-1.18,3.28-1.75,0,.02,0,.02,0,.04,6.98-3.61,14.34-6.55,22.05-8.55.45-.12.88-.22,1.3-.35.04.1.08.18.12.29,1.12,2.59,2.79,5.42,4.87,8.29,2.73,3.79,6.19,7.64,10,11.06.18.16.37.33.55.49.08.16.16.33.24.47v.02c.43.75.9,1.49,1.49,2.14,1.87,2.1,3.77,3.99,5.97,5.48,1.55,1.08,3.26,1.95,5.21,2.57,1.57,1.32,3.67,2.16,6.31,2.16,1.93,0,3.56-.45,4.93-1.2,1.26-.12,2.57-.29,3.85-.51,1.65-.26,3.12-1.1,4.3-2.28,11.4-5.56,18.08-20.81,23.79-31.3.04-.08.08-.16.12-.24,8.68,2.36,16.92,5.8,24.64,10.16.77.43,1.55.88,2.32,1.34.77.45,1.53.92,2.28,1.38.37.22.73.45,1.1.69,1.16.73,2.28,1.49,3.4,2.26,1.32.92,2.65,1.87,3.93,2.83,1.3.98,2.57,1.98,3.83,2.99,1.24,1.02,2.48,2.06,3.69,3.12,1.22,1.08,2.4,2.16,3.56,3.26,1.16,1.08,2.28,2.2,3.38,3.32.1.06.16.14.18.2,1.1,1.1,2.16,2.2,3.18,3.34.51.53,1,1.08,1.43,1.63,1.34,1.45,2.59,2.93,3.77,4.42,7.13,8.7,13.14,18.19,17.96,28.08.92,1.83,1.79,3.69,2.61,5.56,3.95,8.98,7.09,18.35,9.63,27.96,3.99,15.19,6.48,31.02,8.17,46.86,1.63,15.5,2.53,31.04,3.38,46.05Z"/>
    <circle class="cls-30" cx="196.6" cy="417.15" r="3.31"/>
    <circle class="cls-30" cx="196.6" cy="406.49" r="3.31"/>
    <line class="cls-11" x1="205.11" y1="399.9" x2="204.49" y2="433.47"/>
    <line class="cls-11" x1="188.07" y1="399.55" x2="187.45" y2="433.12"/>
    <circle class="cls-13" cx="196.17" cy="416.68" r="3.31"/>
    <circle class="cls-13" cx="196.17" cy="405.95" r="3.31"/>
    <path class="cls-40" d="m315.79,431.27c13.97,35.64,19.05,82.9,21.19,120.66-88.51,33.6-191.89,33.77-280.47.37l.61-.06c.08-1.59.2-3.37.28-4.96,15.23,5.32,31.89,9.9,47.75,13.26,8.7,1.85,17.45,3.42,26.27,4.68,5.89.83,11.77,1.55,17.7,2.14,2.95.31,5.93.55,8.88.77,34.25,2.63,68.89.92,102.62-5.11,2.95-.53,5.89-1.1,8.8-1.69,2.93-.59,5.84-1.2,8.76-1.87,17.45-3.93,34.58-9.06,51.24-15.38v-.04c-.86-15.01-1.75-30.55-3.38-46.05"/>
    <g id="pull">
      <path class="cls-17" d="m278.62,491c5.05-31.53,10.16-61.76,15.58-94.27-7.73-9.47-16.74-18.01-26.96-25.07-2.94-2.03-5.98-3.91-9.11-5.66,0,.65-2.74.45-2.85,1.11-.83,4.87-1.24,10.25-3.02,15.19-2.61,7.3-5.33,10.52-11.53,19.92-3.21,4.08-7.14,8.25-11.81,11.66-8.65,6.31-20.48,10.7-31.53,10.7-11.11,0-15.97-2.88-25.02-6.94-13.76-7.81-24.91-22.75-27.92-32.03-1.59-3.51-1.91-7.08-2.85-10.81-.04-.12-.93-5.64-.97-5.76-.83-1.62-1.03-3.29-1.37-1.28-.36-.8-.86.37-.87-.46-4.41,2.26-8.66,4.79-12.72,7.59-8.92,6.16-16.9,13.44-23.93,21.48,1.37,1.48,0-2.51,0,0,.21,55.67,11.93,116.78,15.32,172.25,46.78,9.27,103.16,8.85,150.31,1.33,4.64-26.88,6.99-52.4,11.24-78.94Z"/>
      <path class="cls-6" d="m111.46,395.26c10.15,53.72,16.98,114.54,18.91,169.18"/>
      <path class="cls-6" d="m283.42,395.53c-10.15,53.72-18.76,108.21-20.69,162.85"/>
      <path class="cls-6" d="m120.47,387.46c13.71,57.64,17.15,119.28,20.3,178.45"/>
      <path class="cls-6" d="m273.13,385.14c-13.71,57.64-16.5,120-19.65,179.17"/>
      <path class="cls-6" d="m131.58,379.78c17.54,59.09,24.95,125.08,20.98,186.6"/>
      <path class="cls-6" d="m262.14,379.1c-17.54,59.09-24.16,125.48-20.18,186.99"/>
      <path class="cls-6" d="m160.17,418.34c6.51,49.46,8.48,99.57,4.26,149.28"/>
      <path class="cls-6" d="m234.2,418.84c-6.51,49.46-12.67,99.08-8.44,148.79"/>
      <path class="cls-6" d="m195.54,431.33c-1.23,46.95-2.38,90.69-3.61,137.64"/>
      <path class="cls-6" d="m177.26,428.72c3.46,45.35,3.6,94.58-1.9,139.73"/>
      <path class="cls-6" d="m213.2,429.65c-3.46,45.35-5.4,92.62-1.3,138.03"/>
    </g>
    <path id="ombre_col_chemis" data-name="ombre col chemis" class="cls-27" d="m163.87,361.3l32.1,31.88,36.67-34.38s25.72,2.72,27.76,8.47c2.04,5.76-31.21,50.96-31.21,50.96l-33.23-22.46-27.66,22.46-34.4-47.79s18.58-15.11,29.96-9.14Z"/>
    <path id="col_chemise" data-name="col chemise" class="cls-28" d="m163.87,358.97l32.1,31.89,36.67-34.39s25.72,2.72,27.76,8.48c2.04,5.76-31.21,50.97-31.21,50.97l-33.23-22.46-27.66,22.46-34.4-47.8s18.58-15.11,29.96-9.14Z"/>
    <path class="cls-2" d="m108.55,273.13c-2.67,1.68-3.05,4.33-3.27,7.63-.08,1.23-.06,2.52.24,3.67s.92,2.16,1.7,2.41c.99.32,2-.62,2.57-1.9s.8-4.08,1.01-5.6"/>
    <path id="boucle_oreille" data-name="boucle oreille" class="cls-2" d="m277.59,272.78c2.67,1.68,3.05,4.33,3.27,7.63.08,1.23.06,2.52-.24,3.67s-.92,2.16-1.7,2.41c-.99.32-2-.62-2.57-1.9s-.8-4.08-1.01-5.6"/>
    <g id="boucle_oreille-2" data-name="boucle oreille">
      <path id="boucle_oreille-3" data-name="boucle oreille" class="cls-3" d="m112.89,274.53c.25,15.75-.2,31.51-1.36,47.21"/>
      <path id="boucle_oreille-4" data-name="boucle oreille" class="cls-26" d="m111.46,324.24c-.68-.38-1.45-1.2-2.01-1.88-.37-.46-.74-1.08-.69-1.8.06-.8.65-1.33,1.19-1.31s1.04.77,1.51,1.18l-.07-.06c.47-.41,1.16-1.1,1.71-1.11s1.13.51,1.19,1.31c.05.72-.31,1.34-.69,1.8-.56.69-1.53,1.51-2.21,1.88"/>
    </g>
    <g id="boucle_oreille-5" data-name="boucle oreille">
      <path id="boucle_oreille-6" data-name="boucle oreille" class="cls-3" d="m273.59,274.53c-.25,15.75.2,31.51,1.36,47.21"/>
      <path id="boucle_oreille-7" data-name="boucle oreille" class="cls-26" d="m275.02,324.24c.68-.38,1.45-1.2,2.01-1.88.37-.46.74-1.08.69-1.8-.06-.8-.65-1.33-1.19-1.31s-1.04.77-1.51,1.18l.07-.06c-.47-.41-1.16-1.1-1.71-1.11s-1.13.51-1.19,1.31c-.05.72.31,1.34.69,1.8.56.69,1.53,1.51,2.21,1.88"/>
    </g>
    <circle class="cls-36" cx="191.27" cy="269.75" r=".51"/>
    <g>
      <g id="tête">
        <g>
          <path class="cls-34" d="m192.76,155.8c44.43-29.03,84.07,55.09,84.07,55.09,7.42,61.72-21.01,113.53-58.07,126.18-27.12,9.26-44.89,1.89-51.18-.37-42.91-15.43-63.23-67.18-59.91-128.04,0,0,39.85-84.04,85.09-52.85Z"/>
          <ellipse class="cls-9" cx="148.53" cy="241.33" rx="9.27" ry="12.56"/>
          <ellipse class="cls-9" cx="238.32" cy="241.33" rx="9.27" ry="12.56"/>
          <path class="cls-5" d="m183.59,299.79c5.79,2,12.09,1.74,18.21,1.46,2.71-.12,6-.66,6.94-3.2"/>
          <path class="cls-1" d="m189.14,279.58c4.49,1.88,9.86,1.49,14.04-1.01"/>
          <path class="cls-34" d="m117.67,278.72c-2.77,1.45-6.25,1.12-9.04-.28-2.79-1.4-4.99-3.74-6.82-6.24-2.3-3.15-4.15-6.71-4.69-10.54-.54-3.84.34-7.98,2.95-10.89,2.61-2.9,7.07-4.28,10.71-2.8l6.88,30.75Z"/>
          <path class="cls-34" d="m267.66,278.72c2.77,1.45,6.25,1.12,9.04-.28s4.99-3.74,6.82-6.24c2.3-3.15,4.15-6.71,4.69-10.54s-.34-7.98-2.95-10.89c-2.61-2.9-7.07-4.28-10.71-2.8l-6.88,30.75Z"/>
          <path class="cls-10" d="m228.58,217.19c6.04-5.51,16.32-5.5,22.35.02"/>
          <path class="cls-10" d="m137.36,217.19c6.04-5.51,16.32-5.5,22.35.02"/>
          <path class="cls-4" d="m242.95,230.63c2.95,1.13,6.58.11,8.51-2.39"/>
          <path class="cls-4" d="m247.38,236.04c2.25,1.02,5.25-.24,6.08-2.57"/>
          <path class="cls-4" d="m142.95,230.89c-1.98.74-4.46-.83-4.63-2.94"/>
          <path class="cls-4" d="m133.49,232.15c1.5,2.47,4.15,4.2,7.01,4.58"/>
          <path class="cls-5" d="m278.12,253.41c3.6,2.52,5.47,7.29,4.55,11.58"/>
          <path class="cls-5" d="m107.32,252.57c-2.27.61-3.89,2.7-4.59,4.95-.7,2.24-.62,4.64-.54,6.99"/>
          <ellipse class="cls-16" cx="242.95" cy="268.31" rx="12.2" ry="6.22"/>
          <ellipse class="cls-16" cx="148.53" cy="272.34" rx="12.2" ry="6.22"/>
        </g>
        <path id="ombre_cheveux" data-name="ombre cheveux" class="cls-21" d="m268.83,199.6c-8.37-13.79-22.71-33.64-39.96-42.34-10.79-5.46-22.75-6.5-35.09,1.1-.35.2-.69.43-1.04.65-1.57-1.08-3.12-2.02-4.66-2.83h-.02c-37.63-19.67-70.65,37.02-78.61,52.11.04-.88.08-1.77.12-2.65,0,0,33.13-69.91,73.27-58.57h.02c1.89.55,3.79,1.26,5.7,2.18,2.02.94,4.05,2.12,6.09,3.52,10.04-6.56,19.86-7.33,29-4.62,21.67,10.92,38.73,39.47,45.17,51.44Z"/>
      </g>
      <circle class="cls-39" cx="241.59" cy="235.1" r="1.63"/>
      <circle class="cls-39" cx="151.62" cy="235.1" r="1.63"/>
      <ellipse class="cls-39" cx="238.32" cy="247.37" rx="3.94" ry="1.63"/>
      <ellipse class="cls-39" cx="148.53" cy="247.37" rx="3.94" ry="1.63"/>
    </g>
    <g id="pencil">
      <ellipse class="cls-25" cx="380.84" cy="176.09" rx="5.98" ry="5.62" transform="translate(63.64 450.73) rotate(-65.7)"/>
      <rect class="cls-17" x="347.5" y="204.03" width="49.85" height="2.53" transform="translate(32.07 460.26) rotate(-65.7)"/>
      <rect class="cls-37" x="342.38" y="198.63" width="49.85" height="8.71" transform="translate(31.16 454.23) rotate(-65.7)"/>
      <polygon class="cls-33" points="353.09 223.91 352.76 238.29 363.33 228.53 353.09 223.91"/>
      <polygon class="cls-35" points="352.9 231.83 357.41 233.87 352.71 238.27 352.9 231.83"/>
      <rect class="cls-35" x="373.99" y="176.68" width="11.23" height="4.29" transform="translate(107.21 -140.36) rotate(24.3)"/>
    </g>
    <g id="games">
      <path class="cls-37" d="m162.09,42.71c-1.7-4.96-3.52-9.87-5.26-14.82-.24.16-.53.26-.85.25-.79,0-1.36-.6-1.35-1.41s.54-1.34,1.32-1.36c-.06-.17-.12-.35-.18-.52-1.41-4.11-5.01-7.11-9.53-7.52-5.17.04-10.36.04-15.54.06-1.09,0-2.2,0-3.29,0-.6,0-1.21-.02-1.8.07-2.97.5-5.32,1.82-6.96,3.94-.39.51-.75,1.07-1.06,1.67-.25.47-.47.96-.66,1.49,0,.03-.02.06-.04.09-.5,1.38-1,2.75-1.51,4.12-1.36,3.8-2.69,7.6-4.05,11.41-.62,1.74-1.32,3.46-1.55,5.32-.07.58-.15,1.18-.22,1.76v.47c.05.2.14.4.15.61.14,2.63,1.04,4.97,2.42,7.2.35.57.78,1.03,1.29,1.4,2.18,1.61,5.47,1.22,7.14-1.22,1.86-2.73,3.89-5.34,5.73-8.07,1.05-1.55,2.36-2.33,4.1-2.48.25-.02.51-.03.78-.03,1.22.02,2.45.02,3.67.03.33,0,.66,0,.99,0,2.1,0,4.2,0,6.3,0,1.77,0,3.54-.02,5.31-.03,1.95,0,3.44.68,4.56,2.33,1.91,2.8,3.89,5.56,5.86,8.32.36.49.77.91,1.21,1.23.48-.36.92-.83,1.3-1.4,2.63-4.02,3.28-8.37,1.72-12.92Zm-9.32-20.68c.78,0,1.43.65,1.44,1.43.02.81-.59,1.45-1.4,1.48-.8.03-1.54-.6-1.55-1.32,0-.87.68-1.6,1.51-1.59Zm-3.23,3.19c.22,0,.44.05.63.15.53.25.9.79.89,1.41,0,.57-.38,1.09-.89,1.34-.2.11-.43.17-.66.17-.84,0-1.54-.71-1.54-1.56,0-.86.68-1.52,1.56-1.51Zm-10.27-2.22c1.52,0,2.67,1.14,2.67,2.66s-1.18,2.66-2.69,2.66-2.69-1.14-2.72-2.63c-.03-1.49,1.2-2.69,2.74-2.69Zm-16.51,1.65c.09,0,.19,0,.29,0,.06,0,.13,0,.17-.02h.02c.23-.04.33-.19.32-.49-.02-.56-.02-1.12,0-1.68.03-.74.34-1.05,1.08-1.06.68-.02,1.35-.02,2.03,0,.7.02,1.01.35,1.03,1.04,0,.52.03,1.05,0,1.56-.04.53.17.68.67.66.5-.04,1-.03,1.51-.02.39,0,.66.09.83.26.17.18.26.45.26.84v1.25c0,.27,0,.56,0,.83,0,.64-.32.94-.97.96-.59,0-1.2,0-1.79,0-.35,0-.49.14-.48.47,0,.6,0,1.2,0,1.8,0,.65-.32.96-.96.97-.36,0-.73,0-1.09,0s-.69,0-1.04,0c-.7,0-1.02-.31-1.05-1.01-.02-.54-.03-1.09,0-1.62.03-.38-.09-.56-.36-.59-.07-.02-.16-.03-.27-.02-.16,0-.31,0-.47,0-.11,0-.22,0-.33,0-.27,0-.55,0-.82-.02-.64,0-.97-.32-.99-.96-.03-.71-.02-1.42,0-2.14.02-.68.32-.99.99-1.01.26-.02.54-.02.8-.02.21,0,.43,0,.65,0Zm9.74,17.88c-1.09,0-2.1-.34-2.94-.9-1.38-.94-2.29-2.53-2.29-4.32s.9-3.38,2.29-4.32c.85-.59,1.88-.93,2.99-.93,1.45,0,2.76.59,3.7,1.55.92.95,1.49,2.24,1.49,3.7s-.56,2.76-1.49,3.7c-.93.95-2.24,1.52-3.75,1.52Zm13.42,0c-1.11,0-2.14-.34-2.97-.91-1.37-.93-2.24-2.52-2.24-4.35,0-1.78.89-3.35,2.24-4.28.85-.58,1.88-.92,2.99-.92,2.9,0,5.23,2.35,5.23,5.28,0,2.88-2.34,5.18-5.26,5.18Zm6.84-10.99c-.83,0-1.55-.73-1.54-1.56,0-.82.72-1.54,1.51-1.52.78,0,1.52.76,1.52,1.53,0,.82-.7,1.55-1.49,1.55Z"/>
      <path class="cls-35" d="m166.33,55.63c-1.72,2.64-4.96,3.12-7.25,1.4.48-.36.92-.83,1.3-1.4,2.63-4.02,3.28-8.37,1.72-12.92-1.7-4.96-3.52-9.87-5.26-14.82.34-.24.56-.63.57-1.09.02-.83-.52-1.41-1.32-1.43-.04,0-.08,0-.12,0-.06-.17-.12-.35-.18-.52-1.41-4.11-5.01-7.11-9.53-7.52,1.58-.02,3.15-.03,4.73-.05,5.1-.06,9.22,3.1,10.77,7.57,2.04,5.98,4.28,11.88,6.32,17.86,1.56,4.55.9,8.9-1.72,12.92Z"/>
      <path class="cls-17" d="m166.33,55.63c-1.72,2.64-4.96,3.12-7.25,1.4.48-.36.92-.83,1.3-1.4,2.63-4.02,3.28-8.37,1.72-12.92-1.7-4.96-3.52-9.87-5.26-14.82.34-.24.56-.63.57-1.09.02-.83-.52-1.41-1.32-1.43-.04,0-.08,0-.12,0-.06-.17-.12-.35-.18-.52-1.41-4.11-5.01-7.11-9.53-7.52,1.58-.02,3.15-.03,4.73-.05,5.1-.06,9.22,3.1,10.77,7.57,2.04,5.98,4.28,11.88,6.32,17.86,1.56,4.55.9,8.9-1.72,12.92Z"/>
      <path class="cls-22" d="m151.17,37.36c0,2.88-2.34,5.18-5.26,5.18s-5.22-2.31-5.21-5.26c0-2.89,2.33-5.2,5.24-5.2s5.23,2.35,5.23,5.28Z"/>
      <path class="cls-38" d="m149.33,37.44c0,1.87-1.52,3.35-3.4,3.35s-3.38-1.49-3.37-3.41c0-1.87,1.51-3.37,3.39-3.37s3.38,1.52,3.38,3.42Z"/>
      <path class="cls-22" d="m137.73,37.33c0,2.97-2.26,5.22-5.24,5.22s-5.23-2.34-5.23-5.22,2.37-5.26,5.28-5.25c2.89,0,5.18,2.33,5.18,5.25Z"/>
      <path class="cls-18" d="m130.94,25.75c0,.7,0,1.39-.02,2.09,0,.64-.31.93-.96.95-.59.02-1.19.02-1.8,0-.34,0-.49.15-.47.47v1.81c-.02.64-.33.95-.96.96h-2.14c-.64-.02-.95-.26-1.01-.82.08.03.18.03.28.03.34.02.69,0,1.05,0s.72.02,1.09,0c.64,0,.95-.31.95-.96.02-.59.02-1.19,0-1.8,0-.34.15-.49.49-.47.59.02,1.19.02,1.78,0,.65-.02.96-.33.98-.96.02-.69,0-1.39,0-2.07,0-.11,0-.21-.03-.29.56.08.77.41.78,1.06Z"/>
      <path class="cls-24" d="m130.19,24.98c0,.69.02,1.39,0,2.07-.02.64-.33.95-.98.96-.59.02-1.19.02-1.78,0-.34-.02-.49.13-.49.47.02.6.02,1.21,0,1.8,0,.65-.31.96-.95.96-.38.02-.73,0-1.09,0s-.7.02-1.05,0c-.1,0-.2,0-.28-.03-.02-.07-.03-.13-.03-.2-.02-.54-.02-1.09.02-1.63.03-.49-.18-.64-.64-.6h-.11c-.51.03-1,.02-1.5,0-.59-.02-.91-.28-.96-.82-.03-.05-.03-.1-.03-.15-.03-.7-.02-1.42,0-2.14.02-.67.31-.98,1-1.01.59-.03,1.16-.02,1.75-.02.36.02.51-.13.51-.51-.02-.56-.02-1.13,0-1.68.02-.74.33-1.05,1.08-1.05.67-.03,1.34-.03,2.03,0,.1,0,.18.02.26.02.52.1.75.42.77,1.01,0,.49.02.96-.02,1.45v.11c-.03.52.18.69.67.65.51-.03,1-.03,1.5-.02.11,0,.21.02.31.03.03.08.03.18.03.29Z"/>
      <path class="cls-24" d="m141.94,25.68c0,1.5-1.18,2.66-2.69,2.66-1.01,0-1.87-.51-2.34-1.3.46.36,1.05.57,1.7.57,1.51,0,2.69-1.16,2.69-2.66,0-.52-.14-.99-.37-1.4.62.47,1.01,1.23,1.01,2.12Z"/>
      <path class="cls-20" d="m141.94,25.68c0,1.5-1.18,2.66-2.69,2.66-1.01,0-1.87-.51-2.34-1.3.46.36,1.05.57,1.7.57,1.51,0,2.69-1.16,2.69-2.66,0-.52-.14-.99-.37-1.4.62.47,1.01,1.23,1.01,2.12Z"/>
      <path class="cls-19" d="m149.39,37.52c0,1.84-1.48,3.27-3.37,3.27-1.27,0-2.34-.63-2.93-1.6.57.45,1.32.71,2.13.71,1.9,0,3.37-1.43,3.37-3.27,0-.64-.17-1.22-.47-1.72.78.58,1.27,1.52,1.27,2.61Z"/>
      <path class="cls-24" d="m141.3,24.95c0,1.5-1.18,2.66-2.69,2.66-.65,0-1.24-.21-1.7-.57-.24-.39-.37-.84-.38-1.33-.03-1.49,1.2-2.69,2.74-2.69.64,0,1.21.2,1.66.55.24.4.37.88.37,1.4Z"/>
      <path class="cls-15" d="m151.06,26.79c-.02.79-.75,1.51-1.54,1.51-.84,0-1.54-.71-1.54-1.56,0-.86.68-1.52,1.56-1.51.84,0,1.54.72,1.52,1.56Z"/>
      <path class="cls-14" d="m154.25,30c0,.82-.7,1.55-1.49,1.55-.83,0-1.55-.73-1.54-1.56,0-.82.72-1.54,1.51-1.52.78,0,1.52.76,1.52,1.53Z"/>
      <path class="cls-29" d="m154.21,23.47c.02.81-.59,1.45-1.4,1.48-.8.03-1.54-.6-1.55-1.32,0-.87.68-1.6,1.51-1.59.78,0,1.43.65,1.44,1.43Z"/>
      <path class="cls-31" d="m157.39,26.8c-.02.78-.62,1.36-1.41,1.34-.79,0-1.36-.6-1.35-1.41,0-.84.59-1.4,1.44-1.37.8.03,1.34.6,1.32,1.43Z"/>
      <path class="cls-23" d="m135.89,37.35c0,1.87-1.52,3.35-3.4,3.35s-3.38-1.49-3.37-3.41c0-1.87,1.51-3.37,3.39-3.37s3.38,1.52,3.38,3.42Z"/>
      <path class="cls-19" d="m135.89,37.37c0,1.87-1.48,3.32-3.37,3.32-1.27,0-2.34-.64-2.93-1.62.57.46,1.32.72,2.13.72,1.9,0,3.37-1.45,3.37-3.32,0-.65-.17-1.24-.47-1.75.78.59,1.27,1.54,1.27,2.65Z"/>
    </g>
    <g id="chevron">
      <path class="cls-6" d="m14.62,112.75l-13.44,11.48c-.96,1.03-.88,2.65.17,3.59l13.27,11.73"/>
      <path class="cls-6" d="m32.66,112.75l13.42,11.46c.97,1.04.89,2.69-.18,3.63l-13.25,11.71"/>
      <line class="cls-6" x1="19.02" y1="144.06" x2="28.13" y2="105.47"/>
    </g>
    <g id="pc">
      <path class="cls-37" d="m278.02,84.53c.23-.36.55-.49.98-.47.64.03,1.29,0,1.98,0,0-.22,0-.4,0-.58,0-8.1.02-16.2-.02-24.29,0-1.57,1.01-3.17,3.18-3.16,11.63.01,23.26,0,34.89,0,2.03,0,3.21,1.19,3.21,3.22,0,8.05,0,16.1,0,24.15,0,.2,0,.4,0,.65.77,0,1.5,0,2.24,0,.68,0,.94.24.92.91-.02.8.03,1.63-.16,2.39-.48,1.9-2.02,3.04-4.06,3.06-3.02.03-6.05.01-9.07,0-.25,0-.56-.11-.74-.27-.37-.35-2.22-.94-1.72-1.1.17-.06,2.4-.06,2.58-.06,2.88,0,5.77-.07,8.65.02,1.93.06,3.35-1.24,3.07-3.48-.15,0-.31-.03-.47-.03-5.2,0-10.4,0-15.59,0-.33,0-.49.06-.54.43-.17,1.1-1.16,2-2.27,2.02-2.25.03-4.5.03-6.76,0-1.11-.02-2.08-.92-2.26-2.03-.05-.34-.19-.42-.51-.41-5.23,0-10.46,0-15.69,0-.13,0-.27.02-.39.03-.34,2.21,1.16,3.48,2.89,3.47,8.61-.04,17.21-.02,25.82-.02.23,0,4.06-.03,4.22.09.2.15-.39.42-.39.65,0,.2.37.47.17.62-.12.1-3.72.08-3.9.08-8.64,0-17.27,0-25.91,0-2.3,0-3.92-1.43-4.29-3.38,0-.04-.04-.08-.07-.12,0-.8,0-1.6,0-2.41Zm42.76-.48c0-.13.02-.23.02-.33,0-8.24,0-16.47,0-24.71,0-.18-.02-.37-.08-.54-.22-.67-.72-.97-1.6-.97-11.65,0-23.29,0-34.94-.01-1.19,0-1.8.65-1.79,1.81.02,8.08,0,16.16,0,24.25v.51h38.38Zm-23.32,1.47c.18.76.53,1.01,1.37,1.01,1.93,0,3.85,0,5.78,0,.17,0,.34-.02.5-.05.49-.09.77-.4.83-.96h-8.48Z"/>
      <rect class="cls-8" x="284.49" y="59.68" width="33.64" height="22.57" rx=".72" ry=".72"/>
    </g>
    <g id="star">
      <path class="cls-37" d="m8.39,238.26c1.87-1.45,3.62-2.89,5.42-4.17,1.03-.73,1.74-1.71,2.25-3.18.8-2.29,1.71-4.51,2.58-6.76.11-.28.23-.55.39-.92.9,2.34,1.85,4.53,2.61,6.84.69,2.07,1.68,3.49,3.15,4.45,1.63,1.08,3.17,2.42,4.85,3.73-.71.56-1.34,1.06-1.98,1.55-1.47,1.14-2.96,2.26-4.42,3.44-.29.23-.56.63-.73,1.04-1.17,2.96-2.31,5.94-3.5,9.02-.24-.6-.45-1.11-.65-1.63-.95-2.46-1.88-4.92-2.85-7.36-.17-.44-.47-.85-.78-1.1-2.07-1.65-4.16-3.25-6.35-4.96Z"/>
    </g>
    <g id="star-2" data-name="star">
      <path class="cls-37" d="m74.03,84.22c1.2-.93,2.31-1.85,3.46-2.66.66-.47,1.11-1.09,1.44-2.03.51-1.47,1.09-2.88,1.65-4.32.07-.18.15-.35.25-.59.58,1.49,1.18,2.89,1.67,4.37.44,1.32,1.07,2.23,2.01,2.85,1.04.69,2.03,1.55,3.1,2.38-.46.36-.86.67-1.26.99-.94.73-1.89,1.45-2.82,2.2-.19.15-.36.4-.46.67-.75,1.89-1.48,3.8-2.23,5.76-.16-.39-.29-.71-.42-1.04-.61-1.57-1.2-3.15-1.82-4.7-.11-.28-.3-.54-.5-.7-1.32-1.05-2.66-2.08-4.06-3.17Z"/>
    </g>
    <g id="star-3" data-name="star">
      <path class="cls-37" d="m212.01,19.74c2.46-1.91,4.75-3.8,7.12-5.48,1.35-.96,2.29-2.25,2.96-4.17,1.05-3.01,2.25-5.93,3.39-8.88.14-.37.31-.72.52-1.21,1.19,3.07,2.43,5.95,3.43,8.98.9,2.72,2.21,4.58,4.14,5.85,2.14,1.41,4.17,3.19,6.38,4.9-.94.73-1.77,1.39-2.6,2.03-1.94,1.5-3.89,2.97-5.81,4.52-.38.31-.74.83-.96,1.37-1.54,3.89-3.03,7.81-4.59,11.85-.32-.79-.6-1.46-.86-2.14-1.25-3.23-2.47-6.47-3.75-9.67-.23-.57-.62-1.12-1.02-1.44-2.72-2.17-5.46-4.27-8.35-6.51Z"/>
    </g>
    <g id="star-4" data-name="star">
      <path class="cls-37" d="m319.76,157.42c1.25-.97,2.41-1.93,3.6-2.77.68-.48,1.16-1.14,1.5-2.11.53-1.53,1.14-3,1.72-4.5.07-.19.16-.37.26-.61.6,1.56,1.23,3.01,1.74,4.55.46,1.38,1.12,2.32,2.09,2.96,1.09.72,2.11,1.61,3.23,2.48-.48.37-.89.7-1.31,1.03-.98.76-1.97,1.51-2.94,2.29-.19.16-.38.42-.48.69-.78,1.97-1.54,3.95-2.33,6-.16-.4-.3-.74-.43-1.08-.63-1.63-1.25-3.28-1.9-4.9-.12-.29-.31-.57-.52-.73-1.38-1.1-2.77-2.16-4.23-3.3Z"/>
    </g>
    <g id="star-5" data-name="star">
      <path class="cls-37" d="m380.35,320.93c1.87-1.45,3.62-2.89,5.42-4.17,1.03-.73,1.74-1.71,2.25-3.18.8-2.3,1.71-4.51,2.58-6.76.11-.28.23-.55.39-.92.9,2.34,1.85,4.53,2.61,6.84.69,2.07,1.68,3.49,3.15,4.46,1.63,1.08,3.18,2.42,4.85,3.73-.71.56-1.34,1.06-1.98,1.55-1.47,1.14-2.96,2.26-4.42,3.44-.29.23-.56.63-.73,1.04-1.17,2.96-2.31,5.94-3.5,9.02-.24-.6-.45-1.11-.65-1.63-.95-2.46-1.88-4.93-2.85-7.36-.17-.44-.47-.85-.78-1.1-2.07-1.65-4.16-3.25-6.35-4.96Z"/>
    </g>
  </g>
</svg>